<?xml version="1.0" encoding="utf-8"?>
<!-- Generator: Adobe Illustrator 22.0.0, SVG Export Plug-In . SVG Version: 6.00 Build 0)  -->
<svg version="1.1" id="Layer_1" xmlns="http://www.w3.org/2000/svg" xmlns:xlink="http://www.w3.org/1999/xlink" x="0px" y="0px"
	 viewBox="0 0 299 249.6" enable-background="new 0 0 299 249.6" xml:space="preserve" fill="currentColor">
<path d="M298.8,222.1c-0.1,16.6-14.3,28.1-31.6,27.5c-18.6-0.6-37.3-0.5-55.9-0.5c-22.8,0-45.6,0.1-68.4,0.1c-18.5,0-36.9,0-55.4,0
	c-2.7,0-5.3-0.1-8-0.1c-2.4,0-4.7,0-5.6-2.9c-0.8-2.7,0.7-4.4,2.6-6c7.9-6.4,15.7-12.8,23.6-19.2c12.6-10.2,20.2-23.1,22.1-39.4
	c0.5-4.1-0.8-5-4.8-5c-29.3,0.2-58.7,0.1-88,0.1C14.6,176.6,0,163.5,0,152.9c0-3.2,0-108.3,0-128S14.7,0.1,30,0.2
	c22.5,0.1,44.9,0,67.4,0c40.3,0,80.6-0.1,121-0.1c2.7,0,5.5,0,6.6,3.2c1.1,3.2-1.3,4.9-3.4,6.6c-8,6.6-15.9,13.1-23.9,19.7
	c-8.5,6.9-14.3,15.7-17.8,26c-1.7,5.1-0.7,10.2-0.8,15.4c-0.1,3.4,2.9,2.1,4.5,2.1c28.7,0.1,57.3,0.1,86,0.1
	c5.4,0,10.6,1.1,15.3,3.8c9.2,5.3,13.9,13.5,14,23.8C299,141.1,299,181.6,298.8,222.1z M102.5,240.2c55.3,0,110.6,0,165.9,0
	c14.6,0,21.5-7.1,21.5-21.8c0-38.6,0-77.3,0-115.9c0-12.6-8.1-20.5-20.6-20.5c-39,0.1-77.9,0.1-116.9,0.1
	c-13.7,0-21.3,7.5-21.3,21.2c0,24.2,0,48.3,0,72.5c0,15.9-5.2,29.9-15.4,42.2c-7,8.4-16.3,14.2-25,22.3
	C95.3,240.2,98.9,240.2,102.5,240.2z M115.6,121.2c-5.9-3.4-11.5-7.4-16.8-11.7c-2-1.6-2.5-2.4-0.5-4.5c11.1-12.1,19-26,23.4-41.9
	c0.7-2.5,1.8-3.1,4.2-3.1c4.3,0.1,8.7,0.1,13,0c3-0.1,4.7-2,4.6-4.8c-0.1-2.6-1.8-4.2-4.6-4.3c-1.5,0-3-0.1-4.5-0.1
	c-11.8,0-23.7-0.1-35.5,0.1c-3,0-4.2-0.8-4.1-3.9c0.2-3.2,0.2-6.3,0-9.5c-0.2-3.1-1.7-5.7-5.2-5.4c-3.2,0.2-4.5,2.5-4.5,5.6
	c0,3.2-0.2,6.3,0,9.5c0.2,2.8-0.8,3.8-3.7,3.7c-6.8-0.2-13.7-0.1-20.5-0.1c-6.5,0-13,0-19.5,0c-3.1,0-5.2,1.6-5.1,4.8
	c0.1,2.9,2.1,4.4,5,4.4c1.2,0,2.3,0,3.5,0c20.8,0,41.7,0.1,62.5-0.1c4.8-0.1,5.2,1.3,3.7,5.4c-4.5,12.4-11.1,23.4-19.8,33.3
	c-1.7,1.9-2.6,1.8-4.2,0.1c-4.9-5.2-9.4-10.8-13.4-16.8c-1.8-2.7-4.1-4.1-7.1-2.1c-2.9,2-2.6,4.6-0.8,7.4c3.9,5.8,8,11.6,13.1,16.3
	c3.5,3.3,2.5,5-0.8,7.5c-10.1,7.7-21,14-32.9,18.7c-3.4,1.4-5.7,3.4-4.1,7.1c1.6,3.7,4.8,2.8,7.7,1.6c12.3-4.9,23.8-11.2,34.2-19.4
	c6.3-5,6.2-5,12.7,0.1c8,6.3,16.5,11.7,25.9,15.8C123.2,125.5,123.2,125.6,115.6,121.2z M170,204.9c0.3-0.8,0.6-1.8,1-2.7
	c11.5-28.3,23.1-56.6,34.6-84.9c0.8-1.9,1.5-3.8,3.7-4.3c3.7-0.8,4.9,1.8,6,4.6c7.5,18.5,15,36.9,22.6,55.4c4,9.8,8,19.7,12,29.5
	c1.2,2.9,1.8,5.8-1.6,7.2c-3.5,1.5-5.4-0.7-6.7-4c-2.6-6.8-5.6-13.5-8.2-20.3c-1-2.7-2.4-3.9-5.4-3.8c-11.8,0.2-23.6,0.2-35.5,0
	c-2.9,0-4.1,1.1-5.1,3.6c-2.8,7.3-5.8,14.5-8.8,21.7c-1,2.5-2.8,3.7-5.5,3C170.7,209.3,169.8,207.5,170,204.9z M225.4,172.8
	c2,0,2.7-0.5,1.8-2.6c-5.5-13.3-10.9-26.7-16.8-41.1c-6.1,15-11.8,28.9-17.8,43.7C204.1,172.8,214.8,172.8,225.4,172.8z"/>
</svg>
